<?xml version="1.0" encoding="UTF-8"?>
<svg xmlns="http://www.w3.org/2000/svg" xmlns:xlink="http://www.w3.org/1999/xlink" width="82px" height="80px" viewBox="0 0 82 80" version="1.1">
<g id="surface1">
<path style=" stroke:none;fill-rule:nonzero;fill:rgb(0%,0%,35.686275%);fill-opacity:1;" d="M 14.519531 0 L 67.480469 0 C 75.507812 0 82 6.496094 82 14.53125 L 82 65.46875 C 82 73.503906 75.507812 80 67.480469 80 L 14.519531 80 C 6.492188 80 0 73.503906 0 65.46875 L 0 14.53125 C 0 6.496094 6.492188 0 14.519531 0 Z M 14.519531 0 "/>
<path style=" stroke:none;fill-rule:nonzero;fill:rgb(60.000002%,60.000002%,100%);fill-opacity:1;" d="M 19.476562 56.070312 L 19.476562 20.855469 C 19.476562 20.617188 19.578125 20.480469 19.816406 20.480469 C 20.398438 20.480469 20.945312 20.480469 21.730469 20.445312 C 22.550781 20.410156 23.402344 20.410156 24.328125 20.375 C 25.25 20.34375 26.238281 20.34375 27.300781 20.308594 C 28.359375 20.273438 29.382812 20.273438 30.410156 20.273438 C 33.210938 20.273438 35.535156 20.617188 37.445312 21.332031 C 39.15625 21.914062 40.726562 22.871094 42.023438 24.136719 C 43.117188 25.230469 43.972656 26.5625 44.519531 28.035156 C 45.03125 29.46875 45.304688 30.941406 45.304688 32.480469 C 45.304688 35.417969 44.621094 37.847656 43.253906 39.761719 C 41.886719 41.675781 39.976562 43.109375 37.753906 43.929688 C 35.429688 44.785156 32.867188 45.09375 30.066406 45.09375 C 29.246094 45.09375 28.699219 45.09375 28.359375 45.058594 C 28.015625 45.027344 27.539062 45.027344 26.890625 45.027344 L 26.890625 56 C 26.921875 56.238281 26.753906 56.445312 26.511719 56.480469 L 19.886719 56.480469 C 19.613281 56.480469 19.476562 56.34375 19.476562 56.035156 Z M 26.921875 27.109375 L 26.921875 38.597656 C 27.402344 38.632812 27.847656 38.667969 28.253906 38.667969 L 30.066406 38.667969 C 31.398438 38.667969 32.730469 38.460938 33.996094 38.050781 C 35.089844 37.742188 36.046875 37.09375 36.796875 36.238281 C 37.515625 35.382812 37.855469 34.222656 37.855469 32.71875 C 37.890625 31.65625 37.617188 30.597656 37.070312 29.675781 C 36.488281 28.785156 35.671875 28.101562 34.679688 27.726562 C 33.414062 27.214844 32.046875 27.007812 30.648438 27.042969 C 29.757812 27.042969 28.972656 27.042969 28.324219 27.078125 C 27.640625 27.042969 27.164062 27.078125 26.921875 27.109375 Z M 26.921875 27.109375 "/>
<path style=" stroke:none;fill-rule:nonzero;fill:rgb(60.000002%,60.000002%,100%);fill-opacity:1;" d="M 50.226562 29.128906 L 56.203125 29.128906 C 56.546875 29.128906 56.820312 29.367188 56.921875 29.675781 C 57.023438 29.949219 57.09375 30.222656 57.125 30.53125 C 57.195312 30.871094 57.261719 31.246094 57.296875 31.589844 C 57.332031 31.964844 57.367188 32.375 57.367188 32.820312 C 58.390625 31.625 59.621094 30.632812 61.023438 29.878906 C 62.59375 28.992188 64.402344 28.546875 66.214844 28.546875 C 66.453125 28.511719 66.660156 28.683594 66.691406 28.921875 L 66.691406 35.726562 C 66.691406 36 66.523438 36.101562 66.148438 36.101562 C 64.917969 36.070312 63.652344 36.171875 62.457031 36.445312 C 61.464844 36.648438 60.507812 36.957031 59.585938 37.367188 C 58.9375 37.675781 58.324219 38.085938 57.84375 38.632812 L 57.84375 56.070312 C 57.84375 56.410156 57.707031 56.546875 57.398438 56.546875 L 50.667969 56.546875 C 50.394531 56.582031 50.15625 56.410156 50.121094 56.136719 L 50.121094 37.058594 C 50.121094 36.238281 50.121094 35.382812 50.089844 34.496094 C 50.054688 33.605469 50.054688 32.71875 50.019531 31.828125 C 50.019531 31.042969 49.953125 30.289062 49.882812 29.503906 C 49.847656 29.332031 49.953125 29.164062 50.121094 29.128906 C 50.121094 29.09375 50.191406 29.09375 50.226562 29.128906 Z M 50.226562 29.128906 "/>
</g>
</svg>
