<?xml version="1.0" encoding="UTF-8"?>
<svg xmlns="http://www.w3.org/2000/svg" xmlns:xlink="http://www.w3.org/1999/xlink" width="120px" height="117px" viewBox="0 0 120 117" version="1.1">
<g id="surface1">
<path style=" stroke:none;fill-rule:nonzero;fill:rgb(0%,0%,35.686275%);fill-opacity:1;" d="M 21.25 0 L 98.75 0 C 110.5 0 120 9.5 120 21.25 L 120 95.75 C 120 107.5 110.5 117 98.75 117 L 21.25 117 C 9.5 117 0 107.5 0 95.75 L 0 21.25 C 0 9.5 9.5 0 21.25 0 Z M 21.25 0 "/>
<path style=" stroke:none;fill-rule:nonzero;fill:rgb(60.000002%,60.000002%,100%);fill-opacity:1;" d="M 48.199219 70 L 29.601562 70 L 25.800781 81.800781 C 25.699219 82.25 25.300781 82.550781 24.851562 82.5 L 15.449219 82.5 C 14.898438 82.5 14.75 82.199219 14.898438 81.601562 L 31 35.449219 C 31.148438 34.949219 31.300781 34.5 31.5 33.898438 C 31.699219 32.851562 31.800781 31.75 31.800781 30.648438 C 31.75 30.398438 31.949219 30.148438 32.199219 30.101562 L 45.148438 30.101562 C 45.5 30.101562 45.75 30.25 45.800781 30.5 L 64.050781 81.5 C 64.199219 82.050781 64.050781 82.300781 63.550781 82.300781 L 53.101562 82.300781 C 52.75 82.351562 52.398438 82.101562 52.300781 81.75 L 48.199219 69.75 Z M 32.5 60.050781 L 45.199219 60.050781 C 44.898438 59 44.5 57.75 44.050781 56.449219 C 43.601562 55.101562 43.148438 53.648438 42.699219 52.148438 C 42.199219 50.601562 41.75 49.101562 41.25 47.550781 C 40.75 46 40.300781 44.550781 39.898438 43.101562 C 39.5 41.699219 39.148438 40.398438 38.800781 39.199219 L 38.699219 39.199219 C 38.25 41.351562 37.699219 43.5 37 45.648438 C 36.25 48.050781 35.5 50.550781 34.699219 53.050781 C 34.050781 55.601562 33.25 57.949219 32.5 60.050781 Z M 32.5 60.050781 "/>
<path style=" stroke:none;fill-rule:nonzero;fill:rgb(60.000002%,60.000002%,100%);fill-opacity:1;" d="M 93.5 65.5 L 77.648438 65.5 C 77.851562 67.050781 78.351562 68.601562 79.199219 69.949219 C 80.101562 71.300781 81.351562 72.351562 82.851562 72.949219 C 84.851562 73.800781 87.050781 74.25 89.25 74.199219 C 91 74.148438 92.75 74 94.449219 73.648438 C 96 73.449219 97.5 73.050781 98.898438 72.5 C 99.148438 72.300781 99.300781 72.398438 99.300781 72.898438 L 99.300781 80.550781 C 99.300781 80.75 99.25 80.949219 99.199219 81.148438 C 99.101562 81.300781 99 81.398438 98.851562 81.5 C 97.25 82.199219 95.601562 82.699219 93.851562 83 C 91.5 83.449219 89.148438 83.648438 86.75 83.601562 C 82.949219 83.601562 79.75 83 77.148438 81.851562 C 74.699219 80.800781 72.550781 79.148438 70.851562 77.101562 C 69.25 75.148438 68.101562 72.949219 67.398438 70.550781 C 66.699219 68.199219 66.351562 65.75 66.351562 63.25 C 66.351562 60.550781 66.75 57.898438 67.601562 55.300781 C 68.398438 52.800781 69.648438 50.5 71.351562 48.449219 C 73 46.449219 75.050781 44.851562 77.398438 43.699219 C 79.75 42.550781 82.550781 42.148438 85.75 42.148438 C 88.398438 42.101562 91.050781 42.601562 93.5 43.699219 C 95.550781 44.601562 97.351562 45.949219 98.75 47.699219 C 100.050781 49.398438 101.101562 51.300781 101.75 53.398438 C 102.398438 55.398438 102.699219 57.449219 102.699219 59.5 C 102.699219 60.699219 102.648438 61.75 102.601562 62.699219 C 102.5 63.648438 102.449219 64.351562 102.398438 64.800781 C 102.351562 65.148438 102.050781 65.449219 101.699219 65.449219 C 101.398438 65.449219 100.851562 65.5 100.050781 65.550781 C 99.25 65.648438 98.300781 65.699219 97.148438 65.699219 C 96 65.699219 94.800781 65.5 93.5 65.5 Z M 77.648438 58.199219 L 88.199219 58.199219 C 89.5 58.199219 90.449219 58.199219 91.050781 58.148438 C 91.449219 58.101562 91.851562 58 92.199219 57.75 L 92.199219 57.25 C 92.199219 56.601562 92.101562 56 91.898438 55.398438 C 91 52.601562 88.351562 50.699219 85.398438 50.800781 C 82.648438 50.648438 80.050781 52.101562 78.75 54.601562 C 78.148438 55.75 77.800781 56.949219 77.648438 58.199219 Z M 77.648438 58.199219 "/>
</g>
</svg>
