<?xml version="1.0" encoding="UTF-8"?>
<svg xmlns="http://www.w3.org/2000/svg" xmlns:xlink="http://www.w3.org/1999/xlink" width="120px" height="117px" viewBox="0 0 120 117" version="1.1">
<g id="surface1">
<path style=" stroke:none;fill-rule:nonzero;fill:rgb(0%,11.764706%,21.176471%);fill-opacity:1;" d="M 21.25 0 L 98.75 0 C 110.5 0 120 9.5 120 21.25 L 120 95.75 C 120 107.5 110.5 117 98.75 117 L 21.25 117 C 9.5 117 0 107.5 0 95.75 L 0 21.25 C 0 9.5 9.5 0 21.25 0 Z M 21.25 0 "/>
<path style=" stroke:none;fill-rule:nonzero;fill:rgb(19.215687%,65.882355%,100%);fill-opacity:1;" d="M 27 82.050781 L 27 30.601562 C 27 30.25 27.148438 30.050781 27.5 30.050781 C 28.351562 30.050781 29.148438 30.050781 30.300781 30 C 31.5 29.949219 32.75 29.949219 34.101562 29.898438 C 35.449219 29.851562 36.898438 29.851562 38.449219 29.800781 C 40 29.75 41.5 29.75 43 29.75 C 47.101562 29.75 50.5 30.25 53.300781 31.300781 C 55.800781 32.148438 58.101562 33.550781 60 35.398438 C 61.601562 37 62.851562 38.949219 63.648438 41.101562 C 64.398438 43.199219 64.800781 45.351562 64.800781 47.601562 C 64.800781 51.898438 63.800781 55.449219 61.800781 58.25 C 59.800781 61.050781 57 63.148438 53.75 64.351562 C 50.351562 65.601562 46.601562 66.050781 42.5 66.050781 C 41.300781 66.050781 40.5 66.050781 40 66 C 39.5 65.949219 38.800781 65.949219 37.851562 65.949219 L 37.851562 82 C 37.898438 82.351562 37.648438 82.648438 37.300781 82.699219 C 37.25 82.699219 37.199219 82.699219 37.101562 82.699219 L 27.601562 82.699219 C 27.199219 82.699219 27 82.5 27 82.050781 Z M 37.898438 39.699219 L 37.898438 56.5 C 38.601562 56.550781 39.25 56.601562 39.851562 56.601562 L 42.5 56.601562 C 44.449219 56.601562 46.398438 56.300781 48.25 55.699219 C 49.851562 55.25 51.25 54.300781 52.351562 53.050781 C 53.398438 51.800781 53.898438 50.101562 53.898438 47.898438 C 53.949219 46.351562 53.550781 44.800781 52.75 43.449219 C 51.898438 42.148438 50.699219 41.148438 49.25 40.601562 C 47.398438 39.851562 45.398438 39.550781 43.351562 39.601562 C 42.050781 39.601562 40.898438 39.601562 39.949219 39.648438 C 38.949219 39.601562 38.25 39.648438 37.898438 39.699219 Z M 37.898438 39.699219 "/>
<path style=" stroke:none;fill-rule:nonzero;fill:rgb(19.215687%,65.882355%,100%);fill-opacity:1;" d="M 96 53.449219 C 94.5 52.648438 92.898438 52.101562 91.199219 51.75 C 89.351562 51.351562 87.5 51.101562 85.601562 51.101562 C 84.601562 51.050781 83.550781 51.199219 82.601562 51.449219 C 81.949219 51.601562 81.398438 51.949219 81.050781 52.449219 C 80.800781 52.851562 80.648438 53.351562 80.648438 53.800781 C 80.648438 54.25 80.851562 54.699219 81.148438 55.101562 C 81.601562 55.648438 82.199219 56.101562 82.851562 56.449219 C 84 57.050781 85.199219 57.601562 86.398438 58.101562 C 89.101562 59 91.699219 60.25 94.101562 61.75 C 95.75 62.800781 97.101562 64.199219 98.050781 65.898438 C 98.851562 67.5 99.25 69.25 99.199219 71.050781 C 99.25 73.398438 98.550781 75.75 97.25 77.699219 C 95.851562 79.699219 93.898438 81.25 91.648438 82.148438 C 89.199219 83.199219 86.199219 83.75 82.601562 83.75 C 80.300781 83.75 78.050781 83.550781 75.800781 83.101562 C 74.050781 82.800781 72.300781 82.25 70.699219 81.5 C 70.351562 81.300781 70.101562 80.949219 70.148438 80.550781 L 70.148438 71.851562 C 70.148438 71.699219 70.199219 71.5 70.351562 71.398438 C 70.5 71.300781 70.648438 71.351562 70.800781 71.449219 C 72.75 72.601562 74.800781 73.398438 77 73.898438 C 78.898438 74.398438 80.898438 74.648438 82.898438 74.648438 C 84.800781 74.648438 86.148438 74.398438 87.050781 73.949219 C 87.851562 73.601562 88.398438 72.75 88.398438 71.851562 C 88.398438 71.148438 88 70.5 87.199219 69.851562 C 86.398438 69.199219 84.75 68.449219 82.300781 67.5 C 79.75 66.601562 77.398438 65.398438 75.199219 63.898438 C 73.648438 62.800781 72.351562 61.351562 71.398438 59.648438 C 70.601562 58.050781 70.199219 56.300781 70.25 54.550781 C 70.25 52.398438 70.851562 50.351562 71.949219 48.5 C 73.199219 46.5 75.050781 44.898438 77.199219 43.898438 C 79.550781 42.699219 82.5 42.148438 86.050781 42.148438 C 88.101562 42.148438 90.199219 42.300781 92.25 42.601562 C 93.75 42.800781 95.199219 43.199219 96.550781 43.75 C 96.75 43.800781 96.949219 44 97.050781 44.199219 C 97.101562 44.398438 97.148438 44.601562 97.148438 44.800781 L 97.148438 52.949219 C 97.148438 53.148438 97.050781 53.351562 96.898438 53.449219 C 96.449219 53.550781 96.199219 53.550781 96 53.449219 Z M 96 53.449219 "/>
</g>
</svg>
