<?xml version="1.0" encoding="UTF-8"?>
<svg xmlns="http://www.w3.org/2000/svg" xmlns:xlink="http://www.w3.org/1999/xlink" width="82px" height="80px" viewBox="0 0 82 80" version="1.1">
<g id="surface1">
<path style=" stroke:none;fill-rule:nonzero;fill:rgb(20%,0%,0%);fill-opacity:1;" d="M 14.519531 0 L 67.480469 0 C 75.507812 0 82 6.496094 82 14.53125 L 82 65.46875 C 82 73.503906 75.507812 80 67.480469 80 L 14.519531 80 C 6.492188 80 0 73.503906 0 65.46875 L 0 14.53125 C 0 6.496094 6.492188 0 14.519531 0 Z M 14.519531 0 "/>
<path style=" stroke:none;fill-rule:nonzero;fill:rgb(100%,60.392159%,0%);fill-opacity:1;" d="M 39.632812 47.863281 L 26.921875 47.863281 L 24.328125 55.898438 C 24.257812 56.207031 23.984375 56.410156 23.675781 56.375 L 17.253906 56.375 C 16.878906 56.375 16.777344 56.171875 16.878906 55.761719 L 27.878906 24.070312 C 27.984375 23.726562 28.085938 23.351562 28.222656 22.941406 C 28.359375 22.222656 28.425781 21.46875 28.425781 20.71875 C 28.390625 20.546875 28.527344 20.375 28.699219 20.34375 L 37.550781 20.34375 C 37.824219 20.34375 37.960938 20.445312 37.992188 20.617188 L 50.464844 55.828125 C 50.566406 56.207031 50.464844 56.375 50.121094 56.375 L 42.980469 56.375 C 42.742188 56.410156 42.503906 56.238281 42.433594 56 Z M 28.90625 40.921875 L 37.582031 40.921875 C 37.378906 40.207031 37.105469 39.351562 36.796875 38.460938 C 36.488281 37.539062 36.183594 36.546875 35.875 35.519531 C 35.535156 34.460938 35.226562 33.4375 34.882812 32.375 C 34.542969 31.316406 34.234375 30.324219 33.960938 29.332031 C 33.6875 28.375 33.449219 27.488281 33.210938 26.667969 L 33.140625 26.667969 C 32.835938 28.136719 32.457031 29.605469 31.980469 31.078125 C 31.46875 32.71875 30.953125 34.425781 30.410156 36.136719 C 29.929688 37.878906 29.417969 39.488281 28.90625 40.921875 Z M 58.082031 26.324219 C 56.957031 26.359375 55.863281 25.914062 55.042969 25.128906 C 54.257812 24.273438 53.847656 23.144531 53.878906 21.984375 C 53.847656 20.820312 54.289062 19.726562 55.109375 18.941406 C 55.929688 18.152344 57.023438 17.742188 58.152344 17.742188 C 59.484375 17.742188 60.507812 18.152344 61.261719 18.941406 C 62.011719 19.761719 62.421875 20.855469 62.386719 21.984375 C 62.421875 23.144531 62.011719 24.273438 61.191406 25.128906 C 60.40625 25.949219 59.246094 26.394531 58.082031 26.324219 Z M 54.257812 56 L 54.257812 29.675781 C 54.257812 29.332031 54.394531 29.195312 54.699219 29.195312 L 61.464844 29.195312 C 61.773438 29.195312 61.910156 29.367188 61.910156 29.675781 L 61.910156 56 C 61.910156 56.375 61.773438 56.546875 61.464844 56.546875 L 54.769531 56.546875 C 54.425781 56.546875 54.257812 56.34375 54.257812 56 Z M 54.257812 56 "/>
</g>
</svg>
